<svg xmlns="http://www.w3.org/2000/svg" viewBox="0 0 1024 1024">
  <defs>
    <linearGradient id="SVGID_1_" x1="0" x2="1" y1="0" y2="1" >
    <stop stop-color="#1E2A4A" offset="0"/>
    <stop stop-color="#0A1228" offset="1"/>
  </linearGradient>
  </defs>
  <rect width="1024" height="1024" fill="url(#SVGID_1_)"/>
  <g transform="translate(-119.84 -18.63) scale(8.6141)">
    <path fill="#7AB0FF" d="m117.2 21.8h-87.5c-1.9 0.1-4 1.7-4 4.2v60.7c0 2.2 1.7 3.9 3.9 3.9h32.4l-2.1 9.2h-4.4c-0.4 0-0.9 0.5-0.8 1 0.1 0.4 0.4 0.7 0.8 0.7h35.9c0.4 0 0.8-0.5 0.7-0.9 0-0.4-0.3-0.7-0.7-0.8h-4.5l-2.2-9.2h32.3c2.1 0 4-1.8 4-4v-60.6c0-2-1.8-4.1-3.8-4.2zm-55.6 78 2.1-9.2h19.4l2.1 9.2h-23.6zm57.7-13.1c0 1.2-1 2.3-2.2 2.3h-87.5c-1.2 0-2.3-1-2.3-2.2v-5h92v4.9zm0-6.5h-92v-54.2c0-1 1-2.4 2.5-2.4h87.4c1.2 0 2.1 1.2 2.2 2.2v54.4h-0.1z"/>
  <path fill="#7AB0FF" d="m48.8 37 4.7 22.5 4.7-6.3 5.8 7.3c0.9 0.3 2.6-0.5 2.3-1.8l-5.7-7.3 7.2-3-19-11.4z"/>
  <path fill="#7AB0FF" d="m68.3 39.2c0.4 0.2 1 0 1.1-0.5l3.2-8.8c0.1-0.4-0.1-0.9-0.5-1-0.4-0.2-0.9 0.1-1 0.5l-3.4 8.7c-0.2 0.4 0.1 0.9 0.6 1.1z"/>
  <path fill="#7AB0FF" d="m75.5 44.2c0.2 0 0.3-0.1 0.5-0.2l9.8-6.8c0.4-0.2 0.5-0.7 0.3-1.1s-0.7-0.6-1.1-0.4l-10 6.9c-0.4 0.2-0.5 0.8-0.3 1.2 0.2 0.2 0.5 0.4 0.8 0.4z"/>
  <path fill="#7AB0FF" d="m76.8 52.1c0 0.5 0.4 0.8 0.8 0.8h12.6c0.4 0 0.8-0.4 0.8-0.8 0-0.5-0.4-0.8-0.7-0.8h-12.7c-0.4 0-0.8 0.4-0.8 0.8z"/>
  <path fill="#7AB0FF" d="m75.9 59.4c-0.4-0.2-0.9-0.1-1.2 0.3-0.2 0.4-0.1 0.9 0.3 1.2l9.8 6.6c0.3 0.2 0.4 0.2 0.6 0.2 0.3 0 0.5-0.1 0.7-0.4 0.2-0.4 0.1-0.9-0.3-1.1l-9.9-6.8z"/>
  <path fill="#7AB0FF" d="m69.4 64.9c-0.2-0.4-0.7-0.6-1.1-0.5-0.4 0.2-0.7 0.7-0.5 1.1l3.3 9.1c0.2 0.4 0.5 0.6 0.7 0.6h0.3c0.4-0.1 0.8-0.6 0.6-1.1l-3.3-9.2z"/>
  </g>
</svg>